<svg xmlns="http://www.w3.org/2000/svg" width="457" height="332.88" viewBox="0 0 457 332.88"><path d="M774.115,502.105a1.315,1.315,0,0,0,.953-2.279l-.09-.358.036-.086a3.531,3.531,0,0,1,6.514.024c1.065,2.566,2.422,5.136,2.756,7.849a10.448,10.448,0,0,1-.183,3.593,41.882,41.882,0,0,0,3.81-17.4,40.439,40.439,0,0,0-.251-4.51q-.208-1.841-.576-3.656a42.368,42.368,0,0,0-8.4-17.957,11.275,11.275,0,0,1-4.689-4.865,8.6,8.6,0,0,1-.782-2.35c.228.03.46.049.689.064l.217.011h.027a1.3,1.3,0,0,0,1.07-2.122l-.3-.364c-.15-.187-.3-.371-.453-.558a.64.64,0,0,1-.049-.056c-.172-.213-.344-.423-.516-.636a3.768,3.768,0,0,1,1.235-1.194,4.343,4.343,0,0,1,5.352,1.25,6.808,6.808,0,0,1,1.052,5.7,15.1,15.1,0,0,1-2.088,4.656c.094.12.191.236.284.356a42.65,42.65,0,0,1,4.451,7.051,17.726,17.726,0,0,1,1.058-8.234c1.013-2.444,2.912-4.5,4.584-6.614a3.638,3.638,0,0,1,6.48,1.787l.01.093q-.373.21-.729.446a1.784,1.784,0,0,0,.719,3.246l.036.006a17.734,17.734,0,0,1-.468,2.653,18.272,18.272,0,0,1-9.1,11.452c-.146.075-.288.15-.434.221a43.525,43.525,0,0,1,2.343,11.026,41.283,41.283,0,0,1-.03,6.665l.011-.079a10.909,10.909,0,0,1,3.724-6.3c2.866-2.354,6.914-3.221,10.006-5.113a2.047,2.047,0,0,1,3.135,1.992l-.013.083a11.987,11.987,0,0,0-1.344.647q-.373.21-.729.446a1.784,1.784,0,0,0,.719,3.246l.036.006.075.011a17.762,17.762,0,0,1-3.267,5.116,18.289,18.289,0,0,1-13.264,5.82h0a43.505,43.505,0,0,1-2.923,8.533H774.377c-.037-.116-.071-.236-.1-.352a11.868,11.868,0,0,0,2.889-.172c-.775-.951-1.549-1.909-2.324-2.859a.635.635,0,0,1-.049-.056c-.393-.487-.79-.969-1.183-1.456h0a17.38,17.38,0,0,1,.509-4.427Z" transform="translate(-433.064 -285.262)" fill="#f2f2f2"/><path d="M725.609,373.844c0,5.748,2.875,11.6,8.623,11.6s13.678-4.163,11.894-13.083c-1.127-5.636-4.362-8.921-10.11-8.921a10.407,10.407,0,0,0-10.407,10.407Z" transform="translate(-416.145 -252.793)" fill="#2f2e41"/><path d="M762.005,498.193a3.2,3.2,0,0,1,.685-4.858l-2.516-11.089,5.53,2.081,1.541,10.211a3.217,3.217,0,0,1-5.24,3.655Z" transform="translate(-428.431 -295.021)" fill="#a0616a"/><path d="M744.8,434.458l3.86.393s-1.009,5.718.569,7.006.942,1.282.933,2.237a4.895,4.895,0,0,0,1.876,3.518c1.264.967,3.891,18.185,3.891,18.185l5.727.055a17.951,17.951,0,0,1,.043-4.455c.34-2.224,2.056-7.827,1.429-8.788s-.3-2.727-.279-4.636-2.713.2-2.682-2.982-3.473-23.148-3.127-26.008-3.13-5.44-3.13-5.44l-3.182-.031Z" transform="translate(-422.967 -270.591)" fill="#e6e6e6"/><path d="M681.189,403.023a3.032,3.032,0,0,0,2.831,3.688l3.1,10.319,3.591-4.3-3.491-9.141a3.048,3.048,0,0,0-6.027-.571Z" transform="translate(-400.331 -266.008)" fill="#a0616a"/><path d="M715.209,409.453s-7.486-2.807-11.545,12.564l-5.388,5.58-4.526-8.179.6-1.94-3.5-7.931-6,3.442,1.476,5.445-.249,2.692,1.433,1.674,2.346,8.652,1.468,2.827s1.851,3.619,5.082,4.216a8.366,8.366,0,0,0,2.612.074,10.11,10.11,0,0,0,5.482-2.737,134.153,134.153,0,0,0,11.314-11.374Z" transform="translate(-401.659 -269.077)" fill="#e6e6e6"/><path d="M491.826,255.2l.53,2.523.45,9.308-18.089-2.449-1.389-10.778,1.92-3.155Z" transform="translate(-168.235 -89.09)" fill="#a0616a"/><circle cx="8.561" cy="8.561" r="8.561" transform="translate(309.162 115.375)" fill="#a0616a"/><path d="M743.237,410.217a11.3,11.3,0,0,0-7.864-6.6l-.032-.006-1.7-2.282-6.878.69-1.257,2.578-3.262,1.94h-.006l-.006.006-1.708,1.018-5.666,6.633-.006.006a7.307,7.307,0,0,0-3.152,4.886,8.609,8.609,0,0,0-.084,1.721,14.786,14.786,0,0,0,2.694,7.084l.741,4.17.148.857,1.334.193,18.8,2.688.522.077.155.019.542-1.4v-.013l5.24-13.71,2.353-6.117A11.079,11.079,0,0,0,743.237,410.217Z" transform="translate(-411.169 -266.26)" fill="#e6e6e6"/><path d="M741.525,380.417c-.078-.012-.155-.029-.233-.041-1.335-.237-2.671-.47-4-.711l-.123-3.018-1.613,2.7a13.536,13.536,0,0,1-10.361-.992,29.255,29.255,0,0,1-3.1-1.711c-.7-4.251,1.061-7.6,5.575-8.029.14-.013.241-.131.363-.192h0a0,0,0,0,0,0,0c.208-.1.421-.192.633-.278a9.431,9.431,0,0,1,9.9,1.919A11.266,11.266,0,0,1,741.525,380.417Z" transform="translate(-414.842 -254.236)" fill="#2f2e41"/><path d="M739.8,482.733a39.789,39.789,0,0,0-1.856-7.425V475.3a37.154,37.154,0,0,0-2.668-5.891l0,0a.006.006,0,0,1,0,0,28.852,28.852,0,0,0-5.885-7.58l-.251-.264h-.064l-18.151-.445h-.187l-.206-.006s-.077.226-.226.651a.371.371,0,0,1-.026.077c-.052.168-.116.361-.193.574-.045.142-.1.29-.148.451s-.122.354-.187.548c-.5,1.5-1.238,3.68-2.14,6.381-.135.413-.277.838-.425,1.283-3.442,10.358-8.979,27.285-13.813,43.328h17.146c1.663-4.809,3.429-11.667,3.429-11.667.69-.819.651-3.042.651-3.042l5.389-5.659,3.88,20.368h16.282l.122-22.67v-.193a46.1,46.1,0,0,0-.464-8.8Z" transform="translate(-404.686 -287.508)" fill="#ccc"/><path d="M747.234,364.73v.007a5.169,5.169,0,0,0,.17,1.328c.018.076.04.156.065.232v0a5.252,5.252,0,0,0,3.238,3.372c.112.043.228.08.344.112a4.691,4.691,0,0,0,.745.152,4.76,4.76,0,0,0,.684.047,5.2,5.2,0,0,0,.536-.025,5.067,5.067,0,0,0,1.219-.279,1.528,1.528,0,0,0,.181-.065.886.886,0,0,0,.087-.036,5.252,5.252,0,0,0,2.71-7.11l0,0a5.146,5.146,0,0,0-1.031-1.447c-.948-.944-1.366-3.311-2.806-3.311a1.962,1.962,0,0,0-.206.007c-.966.033-2.752,2.117-3.512,2.609a5.121,5.121,0,0,0-1.44,1.364,5.185,5.185,0,0,0-.847,1.867A5.251,5.251,0,0,0,747.234,364.73Z" transform="translate(-423.831 -250.756)" fill="#2f2e41"/><path d="M756.876,361.508a8.293,8.293,0,0,0,3.241,1.811,13.635,13.635,0,0,1,7.921,9.961,51.492,51.492,0,0,0,.779,5.343c.5,1.731,1.737,3.428,3.512,3.729a6.656,6.656,0,0,0,3.536-.717q.932-.375,1.864-.752-.972-2.44-1.942-4.88a24.731,24.731,0,0,0,3.6,4.213l6.687-2.694c-5.489.021-4.552-5.308-5.781-10.654-.675-2.938-6.423-4.927-7.55-7.722a8.551,8.551,0,0,0-15.51-.779C756.109,358.817,756.076,360.572,756.876,361.508Z" transform="translate(-427.063 -249.362)" fill="#2f2e41"/><path d="M715.947,460.078a8.1,8.1,0,0,0-5.556,5.033,2.572,2.572,0,0,0,.023,2.209,1.126,1.126,0,0,0,1.384.525,2.775,2.775,0,0,0,1.2-1.283,16.256,16.256,0,0,0,.95-2.179c.431-1.129,1.349-3.014.038-3.9-1.1-.743-2.564-.454-3.805-.505a3.4,3.4,0,0,1-3.309-1.959c-.463-1.352.623-2.624,1.794-3.138a4.663,4.663,0,0,1,4.353.415,6.312,6.312,0,0,1,2.528,3.656.446.446,0,0,1-.86.237,5.292,5.292,0,0,0-2.408-3.3,3.61,3.61,0,0,0-3.846.15,1.582,1.582,0,0,0-.684,1.783,2.144,2.144,0,0,0,1.536,1.15c1.415.342,2.9-.1,4.306.351a2.61,2.61,0,0,1,1.927,2.959,10.738,10.738,0,0,1-.709,2.333,20.16,20.16,0,0,1-.964,2.252c-.56,1.059-1.57,2.2-2.9,1.894-1.519-.354-1.88-2.127-1.554-3.432a8.9,8.9,0,0,1,6.317-6.116.446.446,0,0,1,.237.86Z" transform="translate(-409.448 -285.169)" fill="#ccc"/><path d="M764.268,460.551H658.559a4.517,4.517,0,0,1-4.512-4.512V312.3a4.517,4.517,0,0,1,4.512-4.512H764.268a4.517,4.517,0,0,1,4.512,4.512V456.039A4.517,4.517,0,0,1,764.268,460.551ZM658.559,309.077a3.227,3.227,0,0,0-3.223,3.223V456.039a3.227,3.227,0,0,0,3.223,3.223H764.268a3.227,3.227,0,0,0,3.223-3.223V312.3a3.227,3.227,0,0,0-3.223-3.223Z" transform="translate(-390.71 -233.014)" fill="#3f3d56"/><path d="M685.089,224.981H385.175a1.165,1.165,0,1,1,0-2.329H685.089a1.165,1.165,0,1,1,0,2.329Z" transform="translate(-294.731 -202.753)" fill="#cacaca"/><ellipse cx="6.824" cy="6.977" rx="6.824" ry="6.977" transform="translate(103.552 0)" fill="#3f3d56"/><ellipse cx="6.824" cy="6.977" rx="6.824" ry="6.977" transform="translate(127.128 0)" fill="#3f3d56"/><ellipse cx="6.824" cy="6.977" rx="6.824" ry="6.977" transform="translate(150.703 0)" fill="#3f3d56"/><path d="M819.155,194.464H802.409a1.268,1.268,0,1,0,0,2.536h16.747a1.268,1.268,0,1,0,0-2.536Z" transform="translate(-442.991 -192.735)" fill="#3f3d56"/><path d="M819.155,201.848H802.409a1.268,1.268,0,1,0,0,2.536h16.747a1.268,1.268,0,1,0,0-2.536Z" transform="translate(-442.991 -195.359)" fill="#3f3d56"/><path d="M819.155,209.223H802.409a1.268,1.268,0,1,0,0,2.536h16.747a1.268,1.268,0,1,0,0-2.536Z" transform="translate(-442.991 -197.98)" fill="#3f3d56"/><path d="M918.042,431.547H883.879a8.379,8.379,0,0,1,0-16.759h34.162a8.379,8.379,0,0,1,0,16.759Z" transform="translate(-469.421 -271.045)" fill="#6c63ff"/><path d="M544.146,469.105a1.315,1.315,0,0,1-.953-2.279l.09-.358-.036-.086a3.531,3.531,0,0,0-6.514.024c-1.065,2.566-2.422,5.136-2.756,7.849a10.446,10.446,0,0,0,.183,3.593,41.883,41.883,0,0,1-3.81-17.4,40.411,40.411,0,0,1,.251-4.51q.208-1.841.576-3.656a42.368,42.368,0,0,1,8.4-17.957,11.276,11.276,0,0,0,4.689-4.865,8.6,8.6,0,0,0,.782-2.35c-.228.03-.46.049-.689.064l-.217.011h-.027a1.3,1.3,0,0,1-1.07-2.122l.3-.364c.15-.187.3-.371.453-.558a.655.655,0,0,0,.049-.056c.172-.213.344-.423.516-.636a3.767,3.767,0,0,0-1.235-1.194,4.343,4.343,0,0,0-5.352,1.25,6.808,6.808,0,0,0-1.052,5.7,15.1,15.1,0,0,0,2.088,4.656c-.094.12-.191.236-.284.356a42.645,42.645,0,0,0-4.451,7.051,17.727,17.727,0,0,0-1.058-8.234c-1.013-2.444-2.912-4.5-4.584-6.614a3.638,3.638,0,0,0-6.48,1.787l-.01.093q.373.21.729.446a1.784,1.784,0,0,1-.719,3.246l-.036.006a17.742,17.742,0,0,0,.468,2.653,18.273,18.273,0,0,0,9.1,11.452c.146.075.288.15.434.221a43.523,43.523,0,0,0-2.343,11.025,41.283,41.283,0,0,0,.03,6.665l-.011-.079a10.908,10.908,0,0,0-3.724-6.3c-2.866-2.354-6.914-3.221-10.006-5.113a2.047,2.047,0,0,0-3.135,1.992l.013.083a11.987,11.987,0,0,1,1.344.647q.373.21.729.446a1.784,1.784,0,0,1-.719,3.246l-.036.006-.075.011a17.761,17.761,0,0,0,3.267,5.116,18.289,18.289,0,0,0,13.263,5.82h0a43.508,43.508,0,0,0,2.923,8.533h10.442c.037-.116.071-.236.1-.352a11.862,11.862,0,0,1-2.889-.172c.775-.951,1.549-1.909,2.324-2.859a.64.64,0,0,0,.049-.056c.393-.487.79-.969,1.183-1.456h0a17.372,17.372,0,0,0-.509-4.427Z" transform="translate(-340.475 -273.533)" fill="#f2f2f2"/><g transform="translate(122.219 79.486)" opacity="0.38"><path d="M525.98,456.17a3.775,3.775,0,0,1-.064-5.788l-8.533-22.308,6.819,1.444,7.24,21.458a3.8,3.8,0,0,1-5.462,5.194Z" transform="translate(-464.355 -355.253)" fill="#ffb8b8"/><path d="M523.254,408.853,515.6,376.985l-3.294-9.269a.023.023,0,0,1-.006-.013,6.057,6.057,0,0,0-7.761-3.648,3.926,3.926,0,0,0-.38.155,6.741,6.741,0,0,0-.767.413,6.078,6.078,0,0,0-2.727,3.99l-.58,3.042-.245,1.3,9.043,31.61v.013l3.145,11.009,1.457,5.079v.006l1.689,5.911.039.122,4.054-.271h.006l.612-.045,4.641-.309.67-.045Z" transform="translate(-458.118 -332.368)" fill="#2f2e41"/><path d="M473.9,351.213l17.056,34.494,10.79,36.678c-22.733,4.433-51.256,13.915-53.309.315,1.265-37.917,5.251-50.012,13.479-66.45Z" transform="translate(-439.848 -327.934)" fill="#2f2e41"/><path d="M502.009,485.491H488L482.324,466.3l-4,18.944c-.013.084-.019.161-.032.245H463.367c.483-5.93,1.366-16.243,1.785-17.706.593-2.076,0-2.076-1.186-3.262a5.658,5.658,0,0,1-.329-2.8c.071-5.086,1.457-15.16,1.457-15.16l1.644-3.042.567-1.057,29.276-1.031.251-.006.541,2.359.664,2.907,1.167,5.1,1.076,4.067.058.206v1.205a2.974,2.974,0,0,0-.245,1.334C500.095,459.018,501.023,471.871,502.009,485.491Z" transform="translate(-445.156 -359.999)" fill="#2f2e41"/><path d="M479.029,356.5l2.01-4.809,6.221.109,6.487,9.176,6.809,28.633s2.445,20.917,0,22.021-32.058.517-32.058.517c1.371-11.3,2.393-22.787,3.47-29.651C475.527,359.806,477.207,364.58,479.029,356.5Z" transform="translate(-446.979 -328.102)" fill="#6c63ff"/><path d="M497.606,351.857s13.4,7.746,13.925,11.79,2.279,53.536,2.279,53.536l-4.739-3.062-1.3-18.038c.9-16.028-1.3-27.976-5.784-36.931Z" transform="translate(-457.325 -328.163)" fill="#2f2e41"/><circle cx="9.133" cy="9.133" r="9.133" transform="translate(27.984 3.175)" fill="#ffb8b8"/><path d="M475.146,326.863a15.881,15.881,0,0,0,2.172,5.2,3.542,3.542,0,0,0,1.185,1.345,1.3,1.3,0,0,0,1.646-.206l.222-.181a4.714,4.714,0,0,1-1.152-1,1.605,1.605,0,0,1-.309-1.436.988.988,0,0,1,1.21-.646c.535.21.86.983,1.419.864.453-.1.547-.7.547-1.164-.016-2.452,1.168-5.937,2.086-5.83a7.4,7.4,0,0,0,2.736-.366,7.168,7.168,0,0,1,2.74-.35c.066.008.132.021.2.033a6.069,6.069,0,0,1,.609-1.329,7.1,7.1,0,0,0,.074,1.506,14.082,14.082,0,0,0,2.279.72c.848.119,2.711,2.654,2.8,2.394a6.07,6.07,0,0,1,.609-1.329,7.1,7.1,0,0,0,.074,1.506c0,.021,0,.037.008.058.411-.547.662-1.214.523-.7,1.378-3.118.843-5.352-1.325-7.981a4.169,4.169,0,0,0-1.625-1.3,2.049,2.049,0,0,0-2,.2,6.727,6.727,0,0,0-6.673-1.424c-2.259.786-4,1.247-4.345,3.616a5.028,5.028,0,0,0-4.818,2.345A7.593,7.593,0,0,0,475.146,326.863Z" transform="translate(-449.283 -315.097)" fill="#2f2e41"/><path d="M435.385,452.31a3.775,3.775,0,0,1,2.737-5.1l3.293-23.656,5.276,4.556L442.675,450.4a3.8,3.8,0,0,1-7.291,1.913Z" transform="translate(-435.114 -353.646)" fill="#ffb8b8"/><path d="M464.5,365.957l-.251-2.295a6.074,6.074,0,0,0-3.506-4.847,5.92,5.92,0,0,0-2.346-.548h-.006a6.068,6.068,0,0,0-5.679,3.584l-4.022,8.992-10.152,31.165-3.281,16.952,3.545.522,5.137.754.039.006,1.18.174L461.639,376.3l.006-.013,3.081-8.244Z" transform="translate(-435.165 -330.44)" fill="#2f2e41"/></g><path d="M515.268,426.551H409.559a4.517,4.517,0,0,1-4.512-4.512V278.3a4.517,4.517,0,0,1,4.512-4.512H515.268a4.517,4.517,0,0,1,4.512,4.512V422.039a4.517,4.517,0,0,1-4.512,4.512ZM409.559,275.077a3.227,3.227,0,0,0-3.223,3.223V422.039a3.227,3.227,0,0,0,3.223,3.223H515.268a3.227,3.227,0,0,0,3.223-3.223V278.3a3.227,3.227,0,0,0-3.223-3.223Z" transform="translate(-302.208 -220.929)" fill="#e6e6e6"/><path d="M288.042,431.547H253.879a8.379,8.379,0,0,1,0-16.759h34.162a8.379,8.379,0,0,1,0,16.759Z" transform="translate(-245.5 -271.045)" fill="#e6e6e6"/><path d="M314.042,482.547H279.879a8.379,8.379,0,0,1,0-16.759h34.162a8.379,8.379,0,1,1,0,16.759Z" transform="translate(-254.741 -289.171)" fill="#e6e6e6"/><rect width="1.289" height="66.023" transform="translate(77.352 188.515) rotate(-89.173)" fill="#e6e6e6"/><path d="M470.456,485.754a3.228,3.228,0,0,1-2.9-1.81h0a3.223,3.223,0,1,1,2.9,1.81Zm-.007-5.157a1.934,1.934,0,0,0-1.737,2.782h0a1.932,1.932,0,1,0,1.737-2.782Z" transform="translate(-324.309 -293.977)" fill="#e6e6e6"/><rect width="1.289" height="66.023" transform="translate(63.171 154.353) rotate(-89.173)" fill="#e6e6e6"/><path d="M448.456,432.752a3.228,3.228,0,0,1-2.9-1.81h0a3.224,3.224,0,1,1,2.9,1.81Zm-1.743-2.375a1.933,1.933,0,1,0-.09-1.477A1.933,1.933,0,0,0,446.712,430.377Z" transform="translate(-316.489 -275.138)" fill="#e6e6e6"/><path d="M328.042,381.547H293.879a8.379,8.379,0,0,1,0-16.759h34.162a8.379,8.379,0,0,1,0,16.759Z" transform="translate(-259.717 -253.273)" fill="#e6e6e6"/><rect width="1.289" height="66.023" transform="translate(88.954 122.124) rotate(-89.173)" fill="#e6e6e6"/><path d="M488.456,382.752a3.228,3.228,0,0,1-2.9-1.81h0a3.224,3.224,0,1,1,2.9,1.81Zm-1.743-2.375a1.933,1.933,0,1,0-.09-1.477A1.933,1.933,0,0,0,486.712,380.377Z" transform="translate(-330.706 -257.366)" fill="#e6e6e6"/><rect width="1.289" height="66.023" transform="translate(331.875 149.958) rotate(-89.173)" fill="#3f3d56"/><path d="M754.325,425.3a3.229,3.229,0,1,1,1.41-.328A3.228,3.228,0,0,1,754.325,425.3Zm0-5.159a1.935,1.935,0,1,0,1.74,1.087h0a1.938,1.938,0,0,0-1.74-1.087Z" transform="translate(-425.202 -272.485)" fill="#3f3d56"/><path d="M918.042,534.547H883.879a8.379,8.379,0,0,1,0-16.759h34.162a8.379,8.379,0,0,1,0,16.759Z" transform="translate(-469.421 -307.654)" fill="#6c63ff"/><rect width="1.289" height="66.023" transform="translate(331.876 216.348) rotate(-89.173)" fill="#3f3d56"/><path d="M754.329,528.3a3.224,3.224,0,1,1,2.894-4.637h0a3.225,3.225,0,0,1-2.894,4.637Zm0-5.159a1.935,1.935,0,1,0,1.74,1.088h0a1.938,1.938,0,0,0-1.74-1.088Z" transform="translate(-425.206 -309.1)" fill="#3f3d56"/><path d="M621.077,529.02a3.792,3.792,0,0,0,.166-5.773l6.139-17.875-4.527-2.914-7.136,21.284a3.787,3.787,0,0,0,5.358,5.278Z" transform="translate(-376.805 -302.205)" fill="#ffb6b6"/><path d="M628.4,463.952c-1.084,4.587-2.7,8.593-2.484,10.518s-2.128,3.763-1.383,5.28-1.546,1.683-.927,4.13,1.025,2.977.5,3.38-3.319,9.762-3.319,9.762l1.637.6,4.777,1.743L638.428,480.9l-.034-22.661-2.787-.089c-.669.251-1.41.552-2.15.915C631.2,460.157,628.916,461.767,628.4,463.952Z" transform="translate(-378.889 -286.457)" fill="#6c63ff"/><path d="M451.223,486.032h5.837l2.777-22.514h-8.615Z" transform="translate(-160.378 -164.748)" fill="#ffb6b6"/><path d="M703.063,688.862V684.9l-1.535.094-6.246.37-1.446.089-1.105,13.253-.059.711h4.145l.133-.706.6-3.207,1.554,3.207.34.706h10.988a2.483,2.483,0,0,0,2.467-2.472C713.365,694.783,704.227,690.1,703.063,688.862Z" transform="translate(-404.438 -367.052)" fill="#2f2e41"/><path d="M345.131,477.792l5.077,2.881,13.526-18.212-7.493-4.251Z" transform="translate(-122.67 -162.862)" fill="#ffb6b6"/><path d="M592.872,682.889l1.949-3.439-1.372-.676-5.62-2.758-1.3-.641-6.4,9.37-1.5,2.2,1.7.967,1.9,1.081,2.576-3.039-.286,4.337,8.975,5.1h0l.577.326a2.471,2.471,0,0,0,3.365-.933C598.907,693.122,593.272,684.547,592.872,682.889Z" transform="translate(-363.902 -363.665)" fill="#2f2e41"/><path d="M634.155,517.65c-7.822,5.183-15.565,54.981-13.533,54.168l-18.436,34.359,9.423,6.371,34.073-54.518,11.326,24.118,4.677,37.019,11.732-.838c-3.049-41.7-10.66-85.69-16.968-102.7Z" transform="translate(-372.277 -306.885)" fill="#2f2e41"/><path d="M640.453,496.8l-.085.32c8.269,4.6,30.9-.728,30.9-.728l-3.648-11.755,4.925-26.113a7.633,7.633,0,0,0-8.2-7.564l-5.942-4.4-8.46.292-5.659,6.25-3.38,1.208-2.627.936c-.531.478-1.111,1.03-1.666,1.638l4.155,24.726L642.537,489Z" transform="translate(-384.514 -282.337)" fill="#6c63ff"/><circle cx="10.854" cy="10.854" r="10.854" transform="translate(258.816 141.533)" fill="#ffb6b6"/><path d="M639.662,415.3l.093.037a1.511,1.511,0,0,0,.19.069,5.244,5.244,0,0,0,1.284.3,5.14,5.14,0,0,0,.563.03,5.3,5.3,0,0,0,.722-.047,5.1,5.1,0,0,0,.787-.16,3.737,3.737,0,0,0,.361-.117,5.529,5.529,0,0,0,3.422-3.546v0a2.414,2.414,0,0,0,.07-.243,5.486,5.486,0,0,0,.182-1.4v-.008A5.488,5.488,0,0,0,646.31,407c-.4-.573-.87-.668-.609-1.323.835-2.089-2.581-3.8-4.6-2.877a1.979,1.979,0,0,0-.219-.009c-1.358,0-1.862,2-2.671,3.131l.023.008a1.042,1.042,0,0,1-.013,1.971q-.809.263-1.634.465C634.776,410.506,636.856,416.776,639.662,415.3Z" transform="translate(-384.263 -266.692)" fill="#2f2e41"/><path d="M642.975,422.09a11.267,11.267,0,0,0,3.536,6c1.837,1.484,10.474,5,11.2,1.99-.488,2.1-.194,2.906.591,3.658.134-.182.276-.356.423-.526a6.839,6.839,0,0,1,1.909-1.531,21.981,21.981,0,0,1-.273,3.793,12.832,12.832,0,0,1,.922.943c1.4-4.163,4.459-9.15,2.242-12.941-.88-1.5-.146-1.711.633-1.883,1.36-.3,2.111-5.884,2.434-7.241.4-1.7.561-3.659-.494-5.056s-3.721-1.456-4.261.208l-1.123-1.527c-1.451-3.194-5.3-2.555-8.786-2.142a10.825,10.825,0,0,0-8.126,5.995A14.807,14.807,0,0,0,642.975,422.09Z" transform="translate(-386.577 -267.738)" fill="#2f2e41"/><path d="M648.186,408.289a9.832,9.832,0,0,1-5.624,9.267c-.708.321-1.324-.729-.611-1.052a8.651,8.651,0,0,0,5.019-8.218c-.041-.782,1.176-.777,1.216,0Z" transform="translate(-386.298 -268.526)" fill="#6c63ff"/><path d="M719.514,417.854a3.792,3.792,0,0,0-2.431,5.239l-12.7,14,3.01,4.464,14.957-16.74a3.787,3.787,0,0,0-2.84-6.964Z" transform="translate(-408.603 -272.086)" fill="#ffb6b6"/><path d="M671.87,469.521s9,1.617,11.81-2.173,5.874-6.831,6.432-8.683,3.439-2.618,3.354-4.308,2.085-.935,2.48-3.431.233-3.139.876-3.3,6.9-7.66,6.9-7.66l-4.967-4.684-17.6,12.535Z" transform="translate(-397.045 -278.328)" fill="#6c63ff"/><path d="M553.844,679.238a23.589,23.589,0,0,1-17.168-10.846c-2.436-3.951-3.693-8.642-4.909-13.179-.354-1.32-.72-2.686-1.107-4a7.528,7.528,0,0,1,2.486-8.061,7.4,7.4,0,0,1,8.25-.851l.284.151.5,11.2c.739-1.5,2.359-4.891,3.643-8.276l.108-.284.246.178a37.868,37.868,0,0,1,6.958,6.465,39.026,39.026,0,0,1,8.26,31.756l-.062.332Z" transform="translate(-346.739 -351.597)" fill="#f2f2f2"/><path d="M495.938,706.606a.765.765,0,0,0,.767.767H683.817a.767.767,0,0,0,0-1.534H496.705a.765.765,0,0,0-.767.767Z" transform="translate(-334.513 -374.493)" fill="#ccc"/></svg>